<svg width="24" height="24" viewBox="0 0 24 24" fill="none" xmlns="http://www.w3.org/2000/svg">
<mask id="path-1-inside-1_233_2876" fill="white">
<path fill-rule="evenodd" clip-rule="evenodd" d="M5.78516 17.1203L16.0382 6.86724L17.0989 7.9279L6.84582 18.1809L5.78516 17.1203Z"/>
<path fill-rule="evenodd" clip-rule="evenodd" d="M6.09589 6.4707H17.4954V17.8702H15.9954V7.9707L6.09589 7.9707L6.09589 6.4707Z"/>
</mask>
<path d="M5.78516 17.1203L5.07805 16.4132C4.68753 16.8037 4.68753 17.4369 5.07805 17.8274L5.78516 17.1203ZM16.0382 6.86724L16.7453 6.16013C16.3548 5.76961 15.7216 5.76961 15.3311 6.16013L16.0382 6.86724ZM17.0989 7.9279L17.806 8.635C17.9935 8.44747 18.0989 8.19311 18.0989 7.9279C18.0989 7.66268 17.9935 7.40833 17.806 7.22079L17.0989 7.9279ZM6.84582 18.1809L6.13871 18.8881C6.32625 19.0756 6.5806 19.1809 6.84582 19.1809C7.11103 19.1809 7.36539 19.0756 7.55292 18.8881L6.84582 18.1809ZM6.09589 6.4707V5.4707H5.09589L5.09589 6.4707L6.09589 6.4707ZM17.4954 6.4707H18.4954V5.4707H17.4954V6.4707ZM17.4954 17.8702V18.8702H18.4954V17.8702H17.4954ZM15.9954 17.8702H14.9954V18.8702H15.9954V17.8702ZM15.9954 7.9707H16.9954V6.9707H15.9954V7.9707ZM6.09589 7.9707L5.09589 7.9707L5.09589 8.9707H6.09589V7.9707ZM17.806 7.22079L16.7453 6.16013L15.3311 7.57434L16.3918 8.635L17.806 7.22079ZM5.07805 17.8274L6.13871 18.8881L7.55292 17.4738L6.49226 16.4132L5.07805 17.8274ZM15.3311 6.16013L5.07805 16.4132L6.49226 17.8274L16.7453 7.57434L15.3311 6.16013ZM7.55292 18.8881L17.806 8.635L16.3918 7.22079L6.13871 17.4738L7.55292 18.8881ZM15.9954 18.8702H17.4954V16.8702H15.9954V18.8702ZM5.09589 6.4707L5.09589 7.9707L7.09589 7.9707L7.09589 6.4707L5.09589 6.4707ZM17.4954 5.4707H6.09589V7.4707H17.4954V5.4707ZM18.4954 17.8702V6.4707H16.4954V17.8702H18.4954ZM14.9954 7.9707V17.8702H16.9954V7.9707H14.9954ZM6.09589 8.9707L15.9954 8.9707V6.9707L6.09589 6.9707V8.9707Z" fill="#050505" mask="url(#path-1-inside-1_233_2876)"/>
</svg>


