<svg width="24" height="24" viewBox="0 0 24 24" fill="none" xmlns="http://www.w3.org/2000/svg">
<path d="M4 5.25C3.0335 5.25 2.25 6.0335 2.25 7V8.75H2C1.91438 8.75 1.83078 8.75861 1.75 8.775V7C1.75 5.75736 2.75736 4.75 4 4.75H20C21.2426 4.75 22.25 5.75736 22.25 7V8.775C22.1692 8.75861 22.0856 8.75 22 8.75H21.75V7C21.75 6.0335 20.9665 5.25 20 5.25H4ZM2 9.75H2.25V10.25H2C1.86193 10.25 1.75 10.1381 1.75 10C1.75 9.86193 1.86193 9.75 2 9.75ZM3.25 10.25V9.75H20.75V10.25H3.25ZM2 11.25H2.25V17C2.25 17.9665 3.0335 18.75 4 18.75H20C20.9665 18.75 21.75 17.9665 21.75 17V11.25H22C22.0856 11.25 22.1692 11.2414 22.25 11.225V17C22.25 18.2426 21.2426 19.25 20 19.25H4C2.75736 19.25 1.75 18.2426 1.75 17V11.225C1.83078 11.2414 1.91438 11.25 2 11.25ZM22 10.25H21.75V9.75H22C22.1381 9.75 22.25 9.86193 22.25 10C22.25 10.1381 22.1381 10.25 22 10.25Z" stroke="#050505" stroke-linecap="round" stroke-linejoin="round"/>
</svg>
