<svg width="24" height="24" viewBox="0 0 24 24" fill="none" xmlns="http://www.w3.org/2000/svg">
<path d="M3.34565 7.75003L5.2269 3.98752C5.22701 3.9873 5.22712 3.98708 5.22723 3.98686C5.41507 3.61439 5.70277 3.30147 6.0582 3.08305C6.41365 2.86462 6.82282 2.74931 7.24002 2.75002H7.24086H10.775C10.7586 2.8308 10.75 2.91441 10.75 3.00003V3.25002L7.23967 3.25002C7.2395 3.25002 7.23932 3.25002 7.23915 3.25002H7.23869L7.23869 3.75002M3.34565 7.75003L3.40467 8.75003M3.34565 7.75003H3.90467M3.34565 7.75003H3.90467M7.23869 3.75002C7.00679 3.74956 6.77934 3.81362 6.58177 3.93503C6.38449 4.05626 6.22477 4.22991 6.12041 4.43659L6.11994 4.43752L4.46368 7.75003H3.90467M7.23869 3.75002L10.75 3.75002L7.23869 3.75002ZM3.90467 7.75003L3.40467 8.75003M3.40467 8.75003H3C2.90558 8.75003 2.82339 8.80237 2.78085 8.87962L2.77656 8.88821C2.71481 9.01171 2.76487 9.16188 2.88836 9.22362C3.01186 9.28537 3.16202 9.23532 3.22377 9.11182L3.40467 8.75003ZM2.75 10.225C2.91732 10.2593 3.08733 10.2581 3.25 10.2249V19C3.25 19.4642 3.43437 19.9093 3.76256 20.2375C4.09075 20.5657 4.53587 20.75 5 20.75H19C19.4641 20.75 19.9092 20.5657 20.2374 20.2375C20.5656 19.9093 20.75 19.4642 20.75 19V10.2248C20.9127 10.2581 21.0827 10.2594 21.25 10.2251V19C21.25 19.5968 21.0129 20.1691 20.591 20.591C20.169 21.013 19.5967 21.25 19 21.25H5C4.40326 21.25 3.83097 21.013 3.40901 20.591C2.98705 20.1691 2.75 19.5968 2.75 19V10.225ZM19.4793 8.75003L19.7283 9.25003H13.225C13.2414 9.16925 13.25 9.08565 13.25 9.00003V8.75003H19.4793ZM10.775 9.25003H4.2727L4.5227 8.75003H10.75V9.00003C10.75 9.08565 10.7586 9.16925 10.775 9.25003ZM11.75 9.00003V8.75003H12.25V9.00003C12.25 9.1381 12.1381 9.25003 12 9.25003C11.8619 9.25003 11.75 9.1381 11.75 9.00003ZM12.25 7.75003H11.75V4.25003L12.25 4.25003V7.75003ZM20.7764 9.11146L20.5964 8.75003H21C21.1381 8.75003 21.25 8.86196 21.25 9.00003V9.01026C21.2463 9.09832 21.1961 9.18174 21.1116 9.22381C20.988 9.28535 20.8379 9.23505 20.7764 9.11146ZM20.657 7.75003H20.0984L18.338 4.21462L18.3368 4.2123L18.3361 4.21091L18.3359 4.21057C18.1891 3.92016 17.9643 3.67642 17.6866 3.50673C17.5245 3.40764 17.3481 3.3361 17.1646 3.2941C17.2247 3.21156 17.2602 3.10992 17.2602 3.00002V2.8031C17.5018 2.85658 17.7342 2.94981 17.9473 3.08009C18.3052 3.29875 18.5947 3.61304 18.7834 3.98752L19.2299 3.76254L18.7834 3.98753L18.784 3.98858L18.785 3.9907L20.657 7.75003ZM12.25 3.25003L11.75 3.25003V3.00003C11.75 2.86196 11.8619 2.75003 12 2.75003C12.1381 2.75003 12.25 2.86196 12.25 3.00003V3.25003ZM13.25 3.25003V3.00003C13.25 2.91441 13.2414 2.8308 13.225 2.75002H16.2584L16.2602 3.00002L16.2602 3.0035C16.2608 3.09332 16.2851 3.17746 16.3271 3.25004L13.25 3.25003Z" stroke="#050505" stroke-linecap="round" stroke-linejoin="round"/>
</svg>
