<svg width="24" height="24" viewBox="0 0 24 24" fill="none" xmlns="http://www.w3.org/2000/svg">
<path d="M10.75 17.75V10.25H9.25V17.75H10.75Z" fill="#050505"/>
<path d="M14.75 17.75H13.25V10.25H14.75V17.75Z" fill="#050505"/>
<path fill-rule="evenodd" clip-rule="evenodd" d="M7.25 5.25V4C7.25 3.25608 7.61441 2.57493 8.09467 2.09467C8.57493 1.61441 9.25608 1.25 10 1.25H14C14.7439 1.25 15.4251 1.61441 15.9053 2.09467C16.3856 2.57493 16.75 3.25608 16.75 4V5.25H21.75V6.75H19.75V20C19.75 20.7439 19.3856 21.4251 18.9053 21.9053C18.4251 22.3856 17.7439 22.75 17 22.75H7C6.25608 22.75 5.57493 22.3856 5.09467 21.9053C4.61441 21.4251 4.25 20.7439 4.25 20V6.75H2.25V5.25H7.25ZM8.75 5.25V4C8.75 3.74392 8.88559 3.42507 9.15533 3.15533C9.42507 2.88559 9.74392 2.75 10 2.75H14C14.2561 2.75 14.5749 2.88559 14.8447 3.15533C15.1144 3.42507 15.25 3.74392 15.25 4V5.25H8.75ZM5.75 6.75V20C5.75 20.2561 5.88559 20.5749 6.15533 20.8447C6.42507 21.1144 6.74392 21.25 7 21.25H17C17.2561 21.25 17.5749 21.1144 17.8447 20.8447C18.1144 20.5749 18.25 20.2561 18.25 20V6.75H5.75Z" fill="#050505"/>
</svg>
