<svg width="24" height="24" viewBox="0 0 24 24" fill="none" xmlns="http://www.w3.org/2000/svg">
<path d="M14.327 17.7067C14.6497 19.1618 15.9478 20.25 17.5 20.25C19.2108 20.25 20.6129 18.9281 20.7405 17.25H22C22.4142 17.25 22.75 16.9142 22.75 16.5V13.1606L14.327 17.7067ZM14.327 17.7067C14.361 17.6975 14.3944 17.6869 14.4273 17.6749L14.2564 17.205L14 17.221L13.7573 17.2361C13.7576 17.2407 13.7579 17.2454 13.7582 17.25H10.7405C10.6129 18.9281 9.21081 20.25 7.5 20.25C5.78919 20.25 4.38713 18.9281 4.25947 17.25H2C1.58579 17.25 1.25 16.9142 1.25 16.5V4.5C1.25 4.08579 1.58579 3.75 2 3.75H14C14.4142 3.75 14.75 4.08579 14.75 4.5L14.327 17.7067ZM21.75 13.1604C21.7504 12.6679 21.6538 12.1794 21.4655 11.7241L21.041 11.8996L21.4655 11.7241C21.2774 11.269 21.0014 10.8555 20.6535 10.507L20.6532 10.5068L19.0429 8.89645C18.9491 8.80268 18.8219 8.75 18.6893 8.75H14.75C14.4739 8.75 14.25 8.97386 14.25 9.25V15.2672C14.25 15.4898 14.3972 15.6856 14.611 15.7475C14.8249 15.8093 15.0539 15.7224 15.1728 15.5341C15.6607 14.7614 16.5208 14.25 17.5 14.25C18.6432 14.25 19.6246 14.9477 20.0394 15.9424C20.1171 16.1287 20.2991 16.25 20.5009 16.25H21.25C21.5261 16.25 21.75 16.0261 21.75 15.75V13.1604ZM21.75 13.1604L21.25 13.16M21.75 13.1604V13.16H21.25M21.25 13.16V15.25L20.2997 10.8603C20.6012 11.1623 20.8404 11.5207 21.0034 11.9151C21.1666 12.3097 21.2503 12.7331 21.25 13.16ZM14 16C13.7239 16 13.5 16.2239 13.5 16.5C13.5 16.5911 13.5243 16.6765 13.5669 16.75H10.7405C10.4791 16.75 10.2618 16.9514 10.242 17.2121C10.134 18.6315 8.94738 19.75 7.5 19.75C6.05262 19.75 4.86601 18.6315 4.75803 17.2121C4.7382 16.9514 4.5209 16.75 4.25947 16.75H2C1.86193 16.75 1.75 16.6381 1.75 16.5V4.5C1.75 4.36193 1.86193 4.25 2 4.25H14C14.1381 4.25 14.25 4.36193 14.25 4.5V7.75C14.25 8.02614 14.4739 8.25 14.75 8.25H19C19.0663 8.25 19.1299 8.27634 19.1768 8.32322L21.0066 10.153C21.0066 10.1531 21.0067 10.1532 21.0068 10.1532C21.4013 10.5482 21.7143 11.0173 21.9276 11.5331C22.1409 12.049 22.2504 12.6019 22.25 13.1602V13.1606V16.5C22.25 16.6381 22.1381 16.75 22 16.75H20.7405C20.4791 16.75 20.2618 16.9514 20.242 17.2121C20.134 18.6315 18.9474 19.75 17.5 19.75C16.0397 19.75 14.8449 18.6115 14.7554 17.174C14.7516 17.1131 14.7368 17.0542 14.7124 17H15C15.0915 17 15.1772 16.9754 15.251 16.9325C15.2503 16.9549 15.25 16.9774 15.25 17C15.25 18.2426 16.2574 19.25 17.5 19.25C18.7426 19.25 19.75 18.2426 19.75 17C19.75 15.7574 18.7426 14.75 17.5 14.75C16.5403 14.75 15.721 15.3508 15.3976 16.1968C15.3062 16.0772 15.1621 16 15 16H14ZM4.49908 16.25C4.70088 16.25 4.88289 16.1287 4.96056 15.9424C5.3754 14.9477 6.35681 14.25 7.5 14.25C8.64319 14.25 9.6246 14.9477 10.0394 15.9424C10.1171 16.1287 10.2991 16.25 10.5009 16.25H13.25C13.5261 16.25 13.75 16.0261 13.75 15.75V5.25C13.75 4.97386 13.5261 4.75 13.25 4.75H2.75C2.47386 4.75 2.25 4.97386 2.25 5.25V15.75C2.25 16.0261 2.47386 16.25 2.75 16.25H4.49908ZM7.5 14.75C6.25736 14.75 5.25 15.7574 5.25 17C5.25 18.2426 6.25736 19.25 7.5 19.25C8.74264 19.25 9.75 18.2426 9.75 17C9.75 15.7574 8.74264 14.75 7.5 14.75Z" stroke="#050505" stroke-linecap="round" stroke-linejoin="round"/>
</svg>
