<svg width="24" height="24" viewBox="0 0 24 24" fill="none" xmlns="http://www.w3.org/2000/svg">
<path d="M9.50894 4.15533L5.75893 7.90533H5.05182L9.15539 3.80177L9.50894 4.15533ZM14.6553 9.40533H6.17316L5.92315 9.15533L6.17314 8.90533H14.6553C15.4104 8.90533 16.1581 9.05406 16.8557 9.34303C17.5533 9.63199 18.1872 10.0555 18.7211 10.5895C19.2551 11.1234 19.6786 11.7573 19.9676 12.4549C20.2565 13.1525 20.4053 13.9002 20.4053 14.6553C20.4053 15.4104 20.2565 16.1581 19.9676 16.8558C19.6786 17.5534 19.2551 18.1873 18.7211 18.7212C18.1872 19.2551 17.5533 19.6787 16.8557 19.9676C16.1581 20.2566 15.4104 20.4053 14.6553 20.4053H10.9053V19.9053H14.6553C15.3447 19.9053 16.0274 19.7695 16.6644 19.5057L16.473 19.0438L16.6644 19.5057C17.3013 19.2419 17.8801 18.8552 18.3676 18.3676C18.8551 17.8801 19.2418 17.3014 19.5056 16.6644L19.0437 16.4731L19.5056 16.6644C19.7695 16.0275 19.9053 15.3448 19.9053 14.6553C19.9053 13.9659 19.7695 13.2832 19.5056 12.6462L19.0437 12.8376L19.5056 12.6462C19.2418 12.0093 18.8551 11.4305 18.3676 10.943C17.8801 10.4555 17.3013 10.0688 16.6644 9.80497C16.0274 9.54113 15.3447 9.40533 14.6553 9.40533ZM4.40527 8.90533H4.75893L4.50894 9.15533L4.75895 9.40533H4.40527V8.90533ZM5.05184 10.4053H5.75895L9.50894 14.1553L9.15539 14.5089L5.05184 10.4053Z" stroke="#050505" stroke-linecap="square"/>
</svg>
