<svg width="24" height="24" viewBox="0 0 24 24" fill="none" xmlns="http://www.w3.org/2000/svg">
<path fill-rule="evenodd" clip-rule="evenodd" d="M12 4.125C9.65279 4.125 7.75 6.02779 7.75 8.375C7.75 10.7222 9.65279 12.625 12 12.625C14.3472 12.625 16.25 10.7222 16.25 8.375C16.25 6.02779 14.3472 4.125 12 4.125ZM6.25 8.375C6.25 5.19936 8.82436 2.625 12 2.625C15.1756 2.625 17.75 5.19936 17.75 8.375C17.75 11.5506 15.1756 14.125 12 14.125C8.82436 14.125 6.25 11.5506 6.25 8.375Z" fill="#050505"/>
<path fill-rule="evenodd" clip-rule="evenodd" d="M5.81282 15.1878C7.45376 13.5469 9.67936 12.625 12 12.625C14.3206 12.625 16.5462 13.5469 18.1872 15.1878C19.8281 16.8288 20.75 19.0544 20.75 21.375H19.25C19.25 19.4522 18.4862 17.6081 17.1265 16.2485C15.7669 14.8888 13.9228 14.125 12 14.125C10.0772 14.125 8.23311 14.8888 6.87348 16.2485C5.51384 17.6081 4.75 19.4522 4.75 21.375H3.25C3.25 19.0544 4.17187 16.8288 5.81282 15.1878Z" fill="#050505"/>
</svg>
