<svg width="24" height="24" viewBox="0 0 24 24" fill="none" xmlns="http://www.w3.org/2000/svg">
<path fill-rule="evenodd" clip-rule="evenodd" d="M10.6943 3.44467C6.69027 3.44467 3.44434 6.69061 3.44434 10.6947C3.44434 14.6987 6.69027 17.9447 10.6943 17.9447C14.6984 17.9447 17.9443 14.6987 17.9443 10.6947C17.9443 6.69061 14.6984 3.44467 10.6943 3.44467ZM1.94434 10.6947C1.94434 5.86218 5.86184 1.94467 10.6943 1.94467C15.5268 1.94467 19.4443 5.86218 19.4443 10.6947C19.4443 15.5272 15.5268 19.4447 10.6943 19.4447C5.86184 19.4447 1.94434 15.5272 1.94434 10.6947Z" fill="#050505"/>
<path fill-rule="evenodd" clip-rule="evenodd" d="M16.6944 15.634L22.0551 20.9947L20.9944 22.0553L15.6338 16.6947L16.6944 15.634Z" fill="#050505"/>
</svg>
